# xmcd
# 
# Track frame offsets:
#     150
#     10870
#     24974
#     39220
#     53054
#     65164
#     77222
#     89427
#     103509
#     115928
#     130224
#     143505
#     157252
# 
# Disc length: 2267
# 
# Revision: 1
# Processed by: cddbd v1.5.2PL0 Copyright (c) Steve Scherf et al.
# Submitted via: fre:ac v1.0.17
# 
DISCID=a408d90d
DTITLE=Various Artist - The Sound Of Blues Piano
DYEAR=2004
DGENRE=Blues
TTITLE0=Pete Johnson - Stompin' The Boogie
TTITLE1=Cripple Clarence Lofton - I Don't Know
TTITLE2=Little Brother Montgomery - Vicksburg Blues Part3
TTITLE3=Roosevelt Sykes - Driving Wheel Blues
TTITLE4=Eddie Boyd - Five Long Years
TTITLE5=Sunnyland Slim - Worried About My Baby
TTITLE6=Memphis Slim - Wish Me Well
TTITLE7=Earl Gilliam - The Doghouse
TTITLE8=Mercy Dee - Have You Ever
TTITLE9=Floyd Dixon - Roamin' Around
TTITLE10=Jimmy McCracklin - Just Won't Let Her Go
TTITLE11=Little Johnny Jones - Sweet Little Woman
TTITLE12=Ariyo and Billy Branch - Blues After The Rain
EXTD=blues and soul records No.60
EXTT0=
EXTT1=
EXTT2=
EXTT3=
EXTT4=
EXTT5=
EXTT6=
EXTT7=
EXTT8=
EXTT9=
EXTT10=
EXTT11=
EXTT12=
PLAYORDER=
